<?xml version="1.0" encoding="utf-8"?>
<!-- Generator: Adobe Illustrator 27.5.0, SVG Export Plug-In . SVG Version: 6.00 Build 0)  -->
<svg version="1.1" xmlns="http://www.w3.org/2000/svg"  xmlns:xlink="http://www.w3.org/1999/xlink" x="0px" y="0px"
	 viewBox="0 0 500 500" style="enable-background:new 0 0 500 500;" xml:space="preserve">
<g id="Robot">
	<g>
		<g>
			<rect x="235.089" y="313.845" style="fill:#37474F; " className='fill-foreground' width="35.512" height="2.909"/>
			<rect x="235.089" y="317.634" style="fill:#37474F; " className='fill-foreground' width="35.512" height="2.909"/>
			<rect x="235.089" y="321.424" style="fill:#37474F; " className='fill-foreground' width="35.512" height="2.909"/>
			<rect x="235.089" y="325.213" style="fill:#37474F; " className='fill-foreground' width="35.512" height="2.909"/>
			<rect x="235.089" y="329.002" style="fill:#37474F; " className='fill-foreground' width="35.512" height="2.909"/>
		</g>
		<g>
			<rect x="218.458" y="404.594" style="fill:#37474F;"  className='fill-foreground' width="67.516" height="2.909"/>
			<rect x="218.458" y="408.383" style="fill:#37474F; " className='fill-foreground' width="67.516" height="2.909"/>
			<rect x="218.458" y="412.172" style="fill:#37474F; " className='fill-foreground' width="67.516" height="2.909"/>
			<rect x="218.458" y="415.961" style="fill:#37474F; " className='fill-foreground' width="67.516" height="2.909"/>
			<rect x="218.458" y="419.751" style="fill:#37474F; " className='fill-foreground' width="67.516" height="2.909"/>
		</g>
		<g>
			<g>
				<path style="fill:hsl(24.6,95%,53.1%);" d="M188.834,289.798c0.033-0.393-14.777-5.354-14.777-5.354l0.875-50.886l19.639-4.214
					L188.834,289.798z"/>
				<path style="opacity:0.2;" d="M188.834,289.798c0.033-0.393-14.777-5.354-14.777-5.354l0.875-50.886l19.639-4.214
					L188.834,289.798z"/>
			</g>
			<g>
				<path style="fill:hsl(24.6,95%,53.1%);" d="M324.489,309.772c0.104-0.381,15.718,0.058,15.718,0.058l16.69-48.079l-16.989-10.715
					L324.489,309.772z"/>
				<path style="opacity:0.2;" d="M324.489,309.772c0.104-0.381,15.718,0.058,15.718,0.058l16.69-48.079l-16.989-10.715
					L324.489,309.772z"/>
			</g>
			<path style="fill:hsl(24.6,95%,53.1%);" d="M185.983,308.536c0,0,5.491-82.298,10.307-109.371c0,0,99.417,7.519,153.086,28.032
				c0,0-27.669,96.128-29.101,100.898C320.275,328.095,250.267,314.304,185.983,308.536z"/>
			<g>
				<path style="opacity:0.1;" d="M274.722,210.155c-1.616,9.909-3.252,19.815-4.945,29.711l-5.124,29.679l-0.276-0.419
					l33.311,7.913l16.638,4.032l16.619,4.112l-16.707-3.739l-16.688-3.818l-33.341-7.788l-0.337-0.079l0.061-0.341l5.305-29.647
					C271.021,229.891,272.862,220.021,274.722,210.155z"/>
				<path style="opacity:0.1;" d="M271.067,215.803c0.018,0.908-0.706,1.841-1.746,1.932c-0.504,0.048-1.052-0.113-1.462-0.47
					c-0.41-0.357-0.655-0.907-0.658-1.462c0.003-0.555,0.246-1.106,0.657-1.463c0.409-0.36,0.959-0.518,1.463-0.471
					C270.362,213.96,271.085,214.895,271.067,215.803z M271.067,215.803c-0.004-0.458-0.207-0.908-0.548-1.197
					c-0.342-0.289-0.79-0.407-1.197-0.36c-0.839,0.097-1.383,0.85-1.371,1.557c-0.013,0.707,0.53,1.464,1.371,1.559
					c0.407,0.046,0.856-0.072,1.198-0.361C270.86,216.711,271.063,216.261,271.067,215.803z"/>
				<path style="opacity:0.1;" d="M269.321,228.048c0.018,0.908-0.706,1.842-1.746,1.932c-0.504,0.048-1.052-0.113-1.462-0.47
					c-0.41-0.357-0.655-0.907-0.658-1.462c0.003-0.555,0.246-1.106,0.657-1.463c0.409-0.36,0.959-0.518,1.463-0.471
					C268.617,226.206,269.34,227.141,269.321,228.048z M269.321,228.048c-0.004-0.458-0.207-0.908-0.548-1.197
					c-0.342-0.289-0.79-0.407-1.197-0.36c-0.839,0.097-1.383,0.85-1.371,1.557c-0.013,0.707,0.53,1.464,1.371,1.559
					c0.407,0.046,0.856-0.072,1.198-0.362C269.115,228.957,269.317,228.506,269.321,228.048z"/>
				<path style="opacity:0.1;" d="M267.171,240.987c0.018,0.908-0.706,1.842-1.746,1.932c-0.504,0.048-1.052-0.112-1.462-0.47
					c-0.41-0.357-0.655-0.907-0.658-1.462c0.003-0.555,0.246-1.106,0.657-1.463c0.409-0.36,0.959-0.518,1.463-0.471
					C266.467,239.145,267.19,240.079,267.171,240.987z M267.171,240.987c-0.004-0.458-0.207-0.908-0.548-1.197
					c-0.342-0.289-0.79-0.407-1.197-0.36c-0.839,0.097-1.383,0.85-1.371,1.557c-0.013,0.707,0.53,1.464,1.371,1.559
					c0.407,0.047,0.856-0.072,1.198-0.361C266.964,241.895,267.167,241.445,267.171,240.987z"/>
				<path style="opacity:0.1;" d="M265.021,253.926c0.019,0.908-0.706,1.841-1.746,1.932c-0.504,0.047-1.052-0.113-1.462-0.47
					c-0.41-0.357-0.655-0.907-0.658-1.462c0.002-0.555,0.247-1.106,0.657-1.463c0.409-0.36,0.959-0.518,1.463-0.471
					C264.317,252.083,265.04,253.018,265.021,253.926z M265.021,253.926c-0.004-0.458-0.207-0.908-0.549-1.197
					c-0.342-0.289-0.79-0.407-1.197-0.36c-0.839,0.097-1.383,0.85-1.371,1.557c-0.013,0.707,0.53,1.464,1.371,1.559
					c0.407,0.046,0.856-0.072,1.198-0.361C264.814,254.834,265.017,254.384,265.021,253.926z"/>
				<path style="opacity:0.1;" d="M272.347,274.561c0.019,0.908-0.706,1.841-1.746,1.932c-0.504,0.047-1.052-0.113-1.462-0.47
					c-0.41-0.357-0.655-0.907-0.658-1.462c0.002-0.555,0.246-1.106,0.657-1.463c0.409-0.36,0.959-0.518,1.463-0.471
					C271.642,272.718,272.365,273.653,272.347,274.561z M272.347,274.561c-0.004-0.458-0.207-0.908-0.549-1.197
					c-0.342-0.289-0.79-0.407-1.197-0.36c-0.839,0.097-1.383,0.85-1.371,1.557c-0.013,0.707,0.53,1.464,1.371,1.559
					c0.407,0.047,0.856-0.072,1.198-0.362C272.14,275.469,272.342,275.019,272.347,274.561z"/>
				<path style="opacity:0.1;" d="M284.56,277.54c0.019,0.908-0.706,1.842-1.746,1.932c-0.504,0.047-1.052-0.113-1.462-0.47
					c-0.41-0.357-0.655-0.907-0.658-1.462c0.003-0.555,0.247-1.106,0.657-1.463c0.409-0.36,0.959-0.518,1.463-0.471
					C283.856,275.698,284.579,276.632,284.56,277.54z M284.56,277.54c-0.004-0.458-0.207-0.908-0.548-1.197
					c-0.342-0.289-0.79-0.407-1.197-0.36c-0.839,0.097-1.383,0.85-1.371,1.557c-0.013,0.707,0.53,1.464,1.371,1.559
					c0.407,0.046,0.856-0.072,1.198-0.362C284.353,278.448,284.556,277.998,284.56,277.54z"/>
				<path style="opacity:0.1;" d="M296.774,280.52c0.018,0.908-0.706,1.841-1.746,1.932c-0.504,0.047-1.052-0.113-1.462-0.47
					c-0.41-0.357-0.655-0.907-0.658-1.462c0.003-0.555,0.246-1.106,0.657-1.463c0.409-0.36,0.959-0.518,1.463-0.471
					C296.069,278.677,296.792,279.612,296.774,280.52z M296.774,280.52c-0.004-0.458-0.207-0.908-0.548-1.197
					c-0.342-0.289-0.79-0.407-1.197-0.36c-0.839,0.097-1.383,0.85-1.371,1.557c-0.013,0.707,0.53,1.464,1.371,1.559
					c0.407,0.046,0.856-0.072,1.198-0.362C296.567,281.428,296.769,280.977,296.774,280.52z"/>
				<path style="opacity:0.1;" d="M308.987,283.499c0.019,0.908-0.706,1.841-1.746,1.932c-0.504,0.047-1.052-0.112-1.462-0.47
					c-0.41-0.357-0.655-0.907-0.658-1.462c0.003-0.555,0.246-1.106,0.657-1.463c0.409-0.36,0.959-0.518,1.463-0.471
					C308.283,281.656,309.005,282.591,308.987,283.499z M308.987,283.499c-0.004-0.458-0.207-0.908-0.548-1.197
					c-0.342-0.289-0.79-0.407-1.197-0.36c-0.839,0.097-1.383,0.85-1.371,1.557c-0.013,0.707,0.53,1.464,1.371,1.559
					c0.407,0.046,0.856-0.072,1.198-0.361C308.78,284.407,308.983,283.957,308.987,283.499z"/>
				<path style="opacity:0.1;" d="M321.195,286.612c-0.051,0.907-0.845,1.782-1.889,1.792c-0.506,0.009-1.04-0.193-1.422-0.581
					c-0.382-0.388-0.584-0.954-0.544-1.508c0.045-0.553,0.331-1.083,0.768-1.408c0.436-0.327,0.996-0.443,1.495-0.357
					C320.635,284.721,321.283,285.709,321.195,286.612z M321.195,286.612c0.031-0.457-0.137-0.921-0.455-1.236
					c-0.319-0.315-0.757-0.467-1.166-0.451c-0.844,0.032-1.445,0.741-1.487,1.447c-0.068,0.704,0.416,1.5,1.247,1.66
					c0.402,0.078,0.859-0.005,1.222-0.268C320.919,287.502,321.156,287.069,321.195,286.612z"/>
				<path style="opacity:0.1;" d="M262.871,266.865c0.018,0.908-0.706,1.842-1.746,1.932c-0.504,0.048-1.052-0.112-1.462-0.47
					c-0.41-0.357-0.655-0.907-0.658-1.462c0.003-0.555,0.247-1.106,0.657-1.463c0.409-0.36,0.959-0.519,1.463-0.471
					C262.167,265.022,262.89,265.957,262.871,266.865z M262.871,266.865c-0.004-0.458-0.207-0.908-0.549-1.197
					c-0.342-0.289-0.79-0.407-1.197-0.36c-0.839,0.097-1.383,0.85-1.371,1.557c-0.013,0.707,0.53,1.464,1.371,1.559
					c0.407,0.046,0.856-0.072,1.197-0.362C262.665,267.773,262.867,267.323,262.871,266.865z"/>
			</g>
			<g>
				<g>
					
						<ellipse transform="matrix(0.354 -0.9352 0.9352 0.354 -105.6636 381.6404)" style="fill:#263238;" className='fill-foreground' cx="223.434" cy="267.309" rx="22.641" ry="22.641"/>
					<g>
						
							<rect x="216.308" y="258.537" transform="matrix(0.9871 0.1599 -0.1599 0.9871 44.5928 -31.659)" style="fill:hsl(24.6,95%,53.1%)" width="5.362" height="5.362"/>
						
							<rect x="211.872" y="252.387" transform="matrix(0.9871 0.1599 -0.1599 0.9871 43.5521 -31.0288)" style="fill:hsl(24.6,95%,53.1%);" width="5.362" height="5.362"/>
						
							<rect x="233.044" y="255.817" transform="matrix(0.9871 0.1599 -0.1599 0.9871 44.3731 -34.3706)" style="fill:hsl(24.6,95%,53.1%);" width="5.362" height="5.362"/>
						
							<rect x="208.461" y="273.439" transform="matrix(0.9871 0.1599 -0.1599 0.9871 46.875 -30.2125)" style="fill:hsl(24.6,95%,53.1%);" width="5.362" height="5.362"/>
						
							<rect x="229.633" y="276.869" transform="matrix(0.9871 0.1599 -0.1599 0.9871 47.696 -33.5542)" style="fill:hsl(24.6,95%,53.1%);" width="5.362" height="5.362"/>
						
							<rect x="214.612" y="269.004" transform="matrix(0.9871 0.1599 -0.1599 0.9871 46.2448 -31.2531)" style="fill:hsl(24.6,95%,53.1%);" width="5.362" height="5.362"/>
						
							<rect x="220.753" y="264.628" transform="matrix(0.9871 0.1599 -0.1599 0.9871 45.6241 -32.2915)" style="fill:hsl(24.6,95%,53.1%);" width="5.362" height="5.362"/>
						
							<rect x="226.894" y="260.252" transform="matrix(0.9871 0.1599 -0.1599 0.9871 45.0033 -33.3299)" style="fill:hsl(24.6,95%,53.1%);" width="5.362" height="5.362"/>
						
							<rect x="225.198" y="270.719" transform="matrix(0.9871 0.1599 -0.1599 0.9871 46.661 -32.9273)" style="fill:hsl(24.6,95%,53.1%);" width="5.362" height="5.362"/>
					</g>
				</g>
				<g>
					<g>
						
							<ellipse transform="matrix(0.6338 -0.7735 0.7735 0.6338 -106.3514 333.634)" style="fill:hsl(24.6,95%,53.1%);" cx="299.192" cy="279.14" rx="28.231" ry="28.231"/>
						
							<ellipse transform="matrix(0.6338 -0.7735 0.7735 0.6338 -106.3514 333.634)" style="opacity:0.2;" cx="299.192" cy="279.14" rx="28.231" ry="28.231"/>
						<path style="opacity:0.2;" d="M326.66,285.672c-0.13,0.556-0.278,1.093-0.445,1.63l-55.028-11.737
							c0.13-0.982,0.306-1.964,0.537-2.955c3.604-15.165,18.824-24.54,33.999-20.937
							C320.889,255.277,330.264,270.497,326.66,285.672z"/>
					</g>
					
						<ellipse transform="matrix(0.9227 -0.3855 0.3855 0.9227 -84.4858 136.9205)" style="fill:#263238;" className='fill-foreground' cx="299.192" cy="279.14" rx="22.641" ry="22.641"/>
					<g>
						
							<rect x="296.511" y="265.795" transform="matrix(0.9729 0.2312 -0.2312 0.9729 72.6502 -61.6147)" style="fill:hsl(24.6,95%,53.1%);" width="5.362" height="26.689"/>
					</g>
					<g>
						<path style="fill:hsl(24.6,95%,53.1%);" d="M328.298,285.141l-57.801-13.737c3.793-15.958,19.809-25.818,35.767-22.026
							C322.223,253.172,332.091,269.183,328.298,285.141z"/>
						<path style="opacity:0.2;" d="M328.298,285.141l-57.801-13.737c3.793-15.958,19.809-25.818,35.767-22.026
							C322.223,253.172,332.091,269.183,328.298,285.141z"/>
					</g>
				</g>
				<path style="opacity:0.1;" d="M250.071,295.922c0.146-2.257,0.975-4.546,2.612-6.356c0.807-0.912,1.884-1.628,3.07-2.064
					c1.192-0.438,2.48-0.515,3.701-0.411c1.243,0.145,2.512,0.583,3.548,1.367c1.016,0.8,1.795,1.843,2.253,2.966
					c0.943,2.238,1.046,4.63,0.589,6.848c-0.376-2.217-0.949-4.37-1.99-6.137c-1.033-1.781-2.667-2.888-4.614-3.06
					c-1.986-0.247-3.924,0.286-5.485,1.605C252.194,291.995,251.002,293.878,250.071,295.922z"/>
			</g>
			<g>
				<path style="fill:#FFFFFF;" d="M193.716,238.34c0.234-3.016,0.573-6.018,0.859-9.027c0.321-3.004,0.651-6.007,1.016-9.004
					c0.347-3,0.738-5.994,1.122-8.99c0.376-2.996,0.81-5.984,1.212-8.977l0.107-0.799l0.81,0.051
					c6.514,0.41,13.014,0.936,19.505,1.604c3.245,0.333,6.486,0.71,9.723,1.126c3.231,0.464,6.467,0.892,9.679,1.48l-19.517-1.208
					l-19.497-1.261l0.917-0.748c-0.443,2.987-0.855,5.978-1.324,8.961c-0.462,2.984-0.917,5.969-1.415,8.948
					c-0.48,2.981-0.995,5.958-1.52,8.933C194.834,232.399,194.327,235.377,193.716,238.34z"/>
				<path style="fill:#FFFFFF;" d="M198.411,261.156c0.655-3.626,2.303-7.081,4.517-10.09c0.551-0.757,1.178-1.456,1.781-2.176
					c0.653-0.674,1.332-1.326,2.002-1.987c0.731-0.594,1.469-1.183,2.219-1.754c0.797-0.505,1.584-1.032,2.394-1.517
					c0.853-0.41,1.701-0.832,2.562-1.222l2.682-0.928l2.776-0.573c0.932-0.136,1.879-0.165,2.814-0.235
					c3.764-0.097,7.469,0.706,10.869,2.083c-3.619-0.678-7.225-1.054-10.78-0.715c-3.546,0.33-6.992,1.39-10.073,3.126
					c-3.105,1.695-5.855,4.033-8.178,6.749C201.683,254.647,199.768,257.739,198.411,261.156z"/>
				<path style="fill:#FFFFFF;" d="M276.287,268.782c1.15-3.501,3.259-6.695,5.867-9.37c0.65-0.673,1.368-1.279,2.065-1.909
					c0.739-0.577,1.502-1.129,2.257-1.692c0.806-0.488,1.618-0.969,2.44-1.431c0.859-0.39,1.711-0.804,2.581-1.172
					c0.902-0.288,1.8-0.589,2.706-0.856l2.785-0.549l2.829-0.184c0.942-0.007,1.883,0.096,2.819,0.155
					c3.742,0.424,7.299,1.731,10.477,3.564c-3.491-1.171-7.01-2.042-10.578-2.196c-3.558-0.162-7.117,0.412-10.408,1.706
					c-3.309,1.25-6.356,3.186-9.032,5.555C280.425,262.788,278.102,265.585,276.287,268.782z"/>
			</g>
		</g>
		<g>
			<g>
				<g>
					<path style="fill:hsl(24.6,95%,53.1%);" d="M189.141,359.252c-7.232,0-23.064-1.626-33.252-14.725
						c-13.034-16.758-8.323-48.914-8.117-50.275l5.659,0.859c-0.047,0.309-4.544,31.09,6.976,45.902
						c11.263,14.481,31.692,12.402,31.897,12.377l0.644,5.687C192.725,359.104,191.324,359.252,189.141,359.252z"/>
					<path style="opacity:0.4;fill:#FFFFFF;" d="M189.141,359.252c-7.232,0-23.064-1.626-33.252-14.725
						c-13.034-16.758-8.323-48.914-8.117-50.275l5.659,0.859c-0.047,0.309-4.544,31.09,6.976,45.902
						c11.263,14.481,31.692,12.402,31.897,12.377l0.644,5.687C192.725,359.104,191.324,359.252,189.141,359.252z"/>
				</g>
				<path style="fill:hsl(24.6,95%,53.1%);" d="M155.097,299.005c-1.032,0-2.086-0.086-3.159-0.26c-9.546-1.546-13.772-7.258-15.637-11.778
					c-1.869-4.53-2.301-10.01-1.284-16.286l12.106,1.962c-0.63,3.888-0.447,7.315,0.515,9.647c0.686,1.664,2.018,3.662,6.261,4.349
					c1.938,0.314,4.033,0.148,6.227-3.161c1.693-2.554,2.711-6.03,3.067-8.232l12.106,1.961c-0.28,1.732-1.467,7.792-4.952,13.048
					C166.557,295.972,161.222,299.005,155.097,299.005z"/>
				<g>
					<path style="fill:hsl(24.6,95%,53.1%);" d="M201.1,375.633c-0.021-0.261-10.256-1.896-10.256-1.896l-4.968-33.405l12.397-4.897
						L201.1,375.633z"/>
					<path style="opacity:0.2;" d="M201.1,375.633c-0.021-0.261-10.256-1.896-10.256-1.896l-4.968-33.405l12.397-4.897
						L201.1,375.633z"/>
				</g>
			</g>
			<g>
				<path style="fill:hsl(24.6,95%,53.1%);" d="M302.296,375.695c0.027-0.26,10.296-1.669,10.296-1.669l5.705-33.287l-12.286-5.17
					L302.296,375.695z"/>
				<path style="opacity:0.2;" d="M302.296,375.695c0.027-0.26,10.296-1.669,10.296-1.669l5.705-33.287l-12.286-5.17
					L302.296,375.695z"/>
			</g>
			<path style="fill:hsl(24.6,95%,53.1%);" d="M196.841,327.955c0,0,82.786-3.54,110.751,1.121c0,0-8.212,80.106-8.656,81.66
				c0,0-82.351-0.222-95.224,0C203.712,410.736,196.735,357.469,196.841,327.955z"/>
			<g>
				<path style="opacity:0.2;" d="M221.987,349.906c0,0,45.193-1.785,60.46,0.565c0,0-4.483,40.394-4.725,41.177
					c0,0-44.956-0.112-51.983,0C225.737,391.648,222.649,364.002,221.987,349.906z"/>
				<path style="opacity:0.2;" d="M228.164,391.631c-1.035,0-1.855,0.013-2.429,0.02c0,0-3.084-27.651-3.751-41.747
					c0,0,1.028-0.04,2.823-0.1L228.164,391.631z"/>
				<g>
					<g>
						<g>
							<g>
								<path style="fill:hsl(24.6,95%,53.1%);" d="M241.494,359.873c-2.533-0.798-5.232,0.608-6.03,3.139c-0.799,2.536,0.609,5.232,3.142,6.03
									c2.531,0.798,5.227-0.607,6.025-3.14C245.429,363.372,244.025,360.671,241.494,359.873z M244.074,365.726
									c-0.701,2.226-3.07,3.46-5.293,2.759c-2.223-0.701-3.458-3.069-2.756-5.295c0.701-2.223,3.07-3.458,5.295-2.756
									C243.54,361.134,244.775,363.503,244.074,365.726z M241.494,359.873c-2.533-0.798-5.232,0.608-6.03,3.139
									c-0.799,2.536,0.609,5.232,3.142,6.03c2.531,0.798,5.227-0.607,6.025-3.14C245.429,363.372,244.025,360.671,241.494,359.873
									z M244.074,365.726c-0.701,2.226-3.07,3.46-5.293,2.759c-2.223-0.701-3.458-3.069-2.756-5.295
									c0.701-2.223,3.07-3.458,5.295-2.756C243.54,361.134,244.775,363.503,244.074,365.726z M241.494,359.873
									c-2.533-0.798-5.232,0.608-6.03,3.139c-0.799,2.536,0.609,5.232,3.142,6.03c2.531,0.798,5.227-0.607,6.025-3.14
									C245.429,363.372,244.025,360.671,241.494,359.873z M244.074,365.726c-0.701,2.226-3.07,3.46-5.293,2.759
									c-2.223-0.701-3.458-3.069-2.756-5.295c0.701-2.223,3.07-3.458,5.295-2.756C243.54,361.134,244.775,363.503,244.074,365.726
									z M243.096,354.795c-5.341-1.682-11.028,1.285-12.711,6.618c-1.681,5.336,1.28,11.027,6.619,12.708
									c5.333,1.68,11.025-1.283,12.706-6.619C251.393,362.169,248.43,356.475,243.096,354.795z M245.346,366.126
									c-0.921,2.923-4.045,4.551-6.965,3.63c-2.92-0.92-4.548-4.044-3.628-6.967c0.921-2.923,4.047-4.548,6.967-3.628
									C244.638,360.082,246.266,363.206,245.346,366.126z M244.631,365.903c0.798-2.531-0.606-5.231-3.137-6.029
									c-2.533-0.798-5.232,0.608-6.03,3.139c-0.799,2.536,0.609,5.232,3.142,6.03
									C241.137,369.841,243.833,368.436,244.631,365.903z M244.074,365.726c-0.701,2.226-3.07,3.46-5.293,2.759
									c-2.223-0.701-3.458-3.069-2.756-5.295c0.701-2.223,3.07-3.458,5.295-2.756C243.54,361.134,244.775,363.503,244.074,365.726
									z M241.494,359.873c-2.533-0.798-5.232,0.608-6.03,3.139c-0.799,2.536,0.609,5.232,3.142,6.03
									c2.531,0.798,5.227-0.607,6.025-3.14C245.429,363.372,244.025,360.671,241.494,359.873z M244.074,365.726
									c-0.701,2.226-3.07,3.46-5.293,2.759c-2.223-0.701-3.458-3.069-2.756-5.295c0.701-2.223,3.07-3.458,5.295-2.756
									C243.54,361.134,244.775,363.503,244.074,365.726z M241.494,359.873c-2.533-0.798-5.232,0.608-6.03,3.139
									c-0.799,2.536,0.609,5.232,3.142,6.03c2.531,0.798,5.227-0.607,6.025-3.14C245.429,363.372,244.025,360.671,241.494,359.873
									z M244.074,365.726c-0.701,2.226-3.07,3.46-5.293,2.759c-2.223-0.701-3.458-3.069-2.756-5.295
									c0.701-2.223,3.07-3.458,5.295-2.756C243.54,361.134,244.775,363.503,244.074,365.726z"/>
								<g>
									<polygon style="fill:hsl(24.6,95%,53.1%);" points="238.988,374.305 235.273,373.134 234.649,375.829 237.954,376.87 									"/>
									<polygon style="fill:hsl(24.6,95%,53.1%);" points="232.311,370.825 230.511,367.37 228.165,368.835 229.765,371.908 									"/>
									<polygon style="fill:hsl(24.6,95%,53.1%);" points="230.05,363.642 231.22,359.927 228.526,359.304 227.484,362.608 									"/>
									<polygon style="fill:hsl(24.6,95%,53.1%);" points="233.53,356.965 236.985,355.166 235.52,352.819 232.447,354.42 									"/>
									<polygon style="fill:hsl(24.6,95%,53.1%);" points="240.712,354.704 244.428,355.875 245.051,353.18 241.747,352.139 									"/>
									<polygon style="fill:hsl(24.6,95%,53.1%);" points="247.39,358.184 249.189,361.639 251.536,360.175 249.935,357.102 									"/>
									<polygon style="fill:hsl(24.6,95%,53.1%);" points="249.651,365.367 248.48,369.082 251.175,369.706 252.216,366.401 									"/>
									<polygon style="fill:hsl(24.6,95%,53.1%);" points="246.171,372.044 242.715,373.844 244.18,376.19 247.253,374.59 									"/>
								</g>
							</g>
						</g>
					</g>
				</g>
				<g>
					<g>
						<g>
							<g>
								<path style="fill:#DBDBDB;" d="M257.835,374.012c-1.498-0.976-3.503-0.551-4.478,0.945c-0.977,1.5-0.551,3.503,0.947,4.479
									c1.497,0.975,3.499,0.551,4.475-0.947C259.754,376.993,259.332,374.987,257.835,374.012z M258.45,378.274
									c-0.857,1.317-2.617,1.689-3.932,0.832c-1.315-0.856-1.687-2.616-0.83-3.932c0.856-1.315,2.616-1.687,3.932-0.83
									C258.934,375.2,259.306,376.959,258.45,378.274z M257.835,374.012c-1.498-0.976-3.503-0.551-4.478,0.945
									c-0.977,1.5-0.551,3.503,0.947,4.479c1.497,0.975,3.499,0.551,4.475-0.947C259.754,376.993,259.332,374.987,257.835,374.012
									z M258.45,378.274c-0.857,1.317-2.617,1.689-3.932,0.832c-1.315-0.856-1.687-2.616-0.83-3.932
									c0.856-1.315,2.616-1.687,3.932-0.83C258.934,375.2,259.306,376.959,258.45,378.274z M257.835,374.012
									c-1.498-0.976-3.503-0.551-4.478,0.945c-0.977,1.5-0.551,3.503,0.947,4.479c1.497,0.975,3.499,0.551,4.475-0.947
									C259.754,376.993,259.332,374.987,257.835,374.012z M258.45,378.274c-0.857,1.317-2.617,1.689-3.932,0.832
									c-1.315-0.856-1.687-2.616-0.83-3.932c0.856-1.315,2.616-1.687,3.932-0.83C258.934,375.2,259.306,376.959,258.45,378.274z
									 M259.792,371.009c-3.16-2.056-7.384-1.161-9.44,1.994c-2.055,3.157-1.164,7.383,1.994,9.438
									c3.155,2.054,7.382,1.161,9.437-1.995C263.839,377.291,262.947,373.063,259.792,371.009z M259.202,378.764
									c-1.126,1.729-3.446,2.22-5.173,1.095c-1.727-1.125-2.219-3.445-1.093-5.174c1.126-1.729,3.447-2.218,5.174-1.093
									C259.836,374.716,260.327,377.036,259.202,378.764z M258.779,378.49c0.975-1.497,0.553-3.502-0.944-4.477
									c-1.498-0.976-3.503-0.551-4.478,0.945c-0.977,1.5-0.551,3.503,0.947,4.479C255.801,380.412,257.803,379.988,258.779,378.49
									z M258.45,378.274c-0.857,1.317-2.617,1.689-3.932,0.832c-1.315-0.856-1.687-2.616-0.83-3.932
									c0.856-1.315,2.616-1.687,3.932-0.83C258.934,375.2,259.306,376.959,258.45,378.274z M257.835,374.012
									c-1.498-0.976-3.503-0.551-4.478,0.945c-0.977,1.5-0.551,3.503,0.947,4.479c1.497,0.975,3.499,0.551,4.475-0.947
									C259.754,376.993,259.332,374.987,257.835,374.012z M258.45,378.274c-0.857,1.317-2.617,1.689-3.932,0.832
									c-1.315-0.856-1.687-2.616-0.83-3.932c0.856-1.315,2.616-1.687,3.932-0.83C258.934,375.2,259.306,376.959,258.45,378.274z
									 M257.835,374.012c-1.498-0.976-3.503-0.551-4.478,0.945c-0.977,1.5-0.551,3.503,0.947,4.479
									c1.497,0.975,3.499,0.551,4.475-0.947C259.754,376.993,259.332,374.987,257.835,374.012z M258.45,378.274
									c-0.857,1.317-2.617,1.689-3.932,0.832c-1.315-0.856-1.687-2.616-0.83-3.932c0.856-1.315,2.616-1.687,3.932-0.83
									C258.934,375.2,259.306,376.959,258.45,378.274z"/>
								<g>
									<polygon style="fill:#DBDBDB;" points="253.6,382.918 251.402,381.487 250.511,383.122 252.466,384.395 									"/>
									<polygon style="fill:#DBDBDB;" points="249.899,379.454 249.357,376.888 247.57,377.414 248.053,379.696 									"/>
									<polygon style="fill:#DBDBDB;" points="249.732,374.387 251.163,372.189 249.528,371.298 248.255,373.253 									"/>
									<polygon style="fill:#DBDBDB;" points="253.196,370.686 255.762,370.144 255.236,368.358 252.954,368.84 									"/>
									<polygon style="fill:#DBDBDB;" points="258.263,370.519 260.46,371.95 261.352,370.315 259.397,369.042 									"/>
									<polygon style="fill:#DBDBDB;" points="261.964,373.983 262.506,376.549 264.292,376.023 263.81,373.741 									"/>
									<polygon style="fill:#DBDBDB;" points="262.131,379.05 260.7,381.248 262.335,382.139 263.608,380.184 									"/>
									<polygon style="fill:#DBDBDB;" points="258.667,382.751 256.101,383.293 256.626,385.079 258.909,384.597 									"/>
								</g>
							</g>
						</g>
					</g>
				</g>
			</g>
			<g>
				<polygon style="fill:hsl(24.6,95%,53.1%);" points="305.594,401.414 308.776,402.006 317.875,340.379 314.25,339.713 				"/>
				<g>
					<path style="fill:hsl(24.6,95%,53.1%);" d="M277.721,391.648l4.725-41.177l31.804-10.758c0,0-8.656,62.367-8.656,61.701L277.721,391.648z"
						/>
					<path style="opacity:0.4;fill:#FFFFFF;" d="M277.721,391.648l4.725-41.177l31.804-10.758c0,0-8.656,62.367-8.656,61.701
						L277.721,391.648z"/>
				</g>
			</g>
			<path style="fill:#FFFFFF;" d="M200.64,352.139c-0.518-3.411-0.798-6.85-1.011-10.292c-0.098-1.722-0.142-3.446-0.18-5.17
				c-0.034-1.724-0.064-3.45-0.013-5.175l0.014-0.453l0.441-0.024c6.318-0.339,12.632-0.754,18.954-1.03
				c6.32-0.312,12.64-0.595,18.965-0.793c-6.305,0.571-12.613,1.057-18.923,1.515c-6.308,0.493-12.623,0.847-18.934,1.277
				l0.454-0.477l-0.026,5.15l0.06,5.152c0.009,1.719,0.04,3.437,0.09,5.156L200.64,352.139z"/>
			<path style="fill:#FFFFFF;" d="M286.882,351.075c1.97-0.936,3.971-1.806,5.996-2.609c2.019-0.822,4.056-1.6,6.117-2.314
				c2.064-0.705,4.135-1.395,6.241-1.98c2.102-0.592,4.224-1.139,6.392-1.494l0.533-0.087l-0.095,0.509
				c-0.499,2.666-1.021,5.328-1.638,7.975c0.231-2.708,0.557-5.402,0.906-8.091l0.438,0.422c-2.101,0.501-4.185,1.087-6.263,1.701
				c-2.076,0.621-4.146,1.275-6.21,1.947L286.882,351.075z"/>
			<g>
				<polygon style="opacity:0.1;" points="214.403,328.122 214.939,338.421 215.397,348.723 216.191,369.331 216.812,389.945 
					217.06,400.254 217.23,410.566 216.693,400.267 216.235,389.965 215.442,369.357 214.823,348.743 214.574,338.434 				"/>
				<path style="opacity:0.1;" d="M211.453,334.33c0.198,0.887-0.328,1.945-1.329,2.239c-0.485,0.146-1.053,0.098-1.526-0.172
					c-0.473-0.269-0.822-0.759-0.934-1.303c-0.107-0.545,0.023-1.133,0.355-1.564c0.33-0.433,0.838-0.698,1.341-0.751
					C210.398,332.663,211.292,333.437,211.453,334.33z M211.453,334.33c-0.095-0.448-0.383-0.849-0.774-1.065
					c-0.392-0.216-0.855-0.243-1.245-0.116c-0.803,0.261-1.188,1.106-1.036,1.798c0.127,0.695,0.809,1.33,1.652,1.257
					c0.408-0.035,0.825-0.239,1.102-0.591C211.43,335.262,211.539,334.78,211.453,334.33z"/>
				<path style="opacity:0.1;" d="M212.162,346.679c0.198,0.887-0.328,1.945-1.329,2.239c-0.485,0.146-1.053,0.098-1.526-0.172
					c-0.473-0.269-0.822-0.759-0.934-1.303c-0.107-0.545,0.023-1.133,0.355-1.564c0.33-0.433,0.838-0.698,1.341-0.751
					C211.107,345.012,212.001,345.786,212.162,346.679z M212.162,346.679c-0.095-0.448-0.383-0.849-0.774-1.065
					c-0.392-0.216-0.855-0.243-1.245-0.116c-0.803,0.261-1.188,1.107-1.036,1.798c0.127,0.695,0.809,1.33,1.652,1.257
					c0.408-0.035,0.825-0.24,1.103-0.591C212.139,347.611,212.249,347.129,212.162,346.679z"/>
				<path style="opacity:0.1;" d="M212.612,359.788c0.198,0.887-0.328,1.945-1.329,2.239c-0.485,0.146-1.053,0.098-1.526-0.172
					c-0.473-0.269-0.822-0.759-0.934-1.303c-0.107-0.544,0.023-1.133,0.355-1.564c0.33-0.434,0.838-0.698,1.341-0.751
					C211.557,358.121,212.451,358.895,212.612,359.788z M212.612,359.788c-0.095-0.448-0.383-0.849-0.774-1.065
					c-0.392-0.216-0.855-0.243-1.245-0.116c-0.803,0.261-1.188,1.106-1.036,1.797c0.127,0.696,0.809,1.33,1.652,1.257
					c0.408-0.035,0.825-0.239,1.102-0.591C212.589,360.719,212.698,360.238,212.612,359.788z"/>
				<path style="opacity:0.1;" d="M213.062,372.896c0.198,0.887-0.328,1.945-1.329,2.239c-0.485,0.146-1.053,0.098-1.526-0.172
					c-0.473-0.269-0.822-0.759-0.934-1.303c-0.107-0.545,0.023-1.133,0.355-1.564c0.33-0.433,0.837-0.698,1.341-0.751
					C212.007,371.229,212.901,372.003,213.062,372.896z M213.062,372.896c-0.095-0.448-0.382-0.849-0.774-1.065
					c-0.392-0.216-0.855-0.243-1.245-0.116c-0.803,0.261-1.188,1.106-1.036,1.798c0.127,0.695,0.809,1.33,1.652,1.257
					c0.408-0.035,0.825-0.239,1.102-0.591C213.039,373.828,213.148,373.346,213.062,372.896z"/>
				<path style="opacity:0.1;" d="M213.512,386.005c0.198,0.887-0.328,1.945-1.329,2.239c-0.485,0.146-1.053,0.098-1.526-0.172
					c-0.473-0.269-0.822-0.759-0.934-1.303c-0.107-0.545,0.023-1.133,0.355-1.564c0.33-0.433,0.838-0.698,1.341-0.751
					C212.457,384.338,213.351,385.111,213.512,386.005z M213.512,386.005c-0.095-0.448-0.383-0.849-0.774-1.065
					c-0.392-0.216-0.855-0.243-1.245-0.116c-0.803,0.261-1.188,1.106-1.036,1.798c0.127,0.696,0.809,1.33,1.652,1.257
					c0.408-0.035,0.825-0.239,1.103-0.591C213.489,386.936,213.598,386.454,213.512,386.005z"/>
				<path style="opacity:0.1;" d="M213.962,399.113c0.198,0.887-0.328,1.945-1.329,2.239c-0.485,0.146-1.053,0.098-1.526-0.172
					c-0.473-0.269-0.822-0.759-0.934-1.303c-0.107-0.544,0.023-1.133,0.355-1.564c0.33-0.434,0.837-0.698,1.341-0.751
					C212.907,397.446,213.8,398.22,213.962,399.113z M213.962,399.113c-0.095-0.448-0.383-0.849-0.774-1.065
					c-0.392-0.216-0.855-0.243-1.245-0.116c-0.803,0.261-1.188,1.106-1.036,1.798c0.127,0.696,0.809,1.33,1.652,1.257
					c0.408-0.035,0.825-0.24,1.102-0.591C213.939,400.044,214.048,399.563,213.962,399.113z"/>
			</g>
		</g>
		<g>
			
				<rect x="170.931" y="426.135" transform="matrix(0.957 -0.29 0.29 0.957 -116.0263 75.1211)" style="fill:hsl(24.6,95%,53.1%);" width="48.981" height="5.723"/>
			
				<rect x="170.931" y="426.135" transform="matrix(0.957 -0.29 0.29 0.957 -116.0263 75.1211)" style="opacity:0.4;fill:#FFFFFF;" width="48.981" height="5.723"/>
			
				<rect x="191.271" y="424.746" transform="matrix(0.953 -0.3031 0.3031 0.953 -120.8945 79.0204)" style="fill:hsl(24.6,95%,53.1%);" width="5.723" height="8.501"/>
			<g>
				<polygon style="fill:hsl(24.6,95%,53.1%);" points="172.427,446.863 160.331,394.484 123.821,403.14 141.799,454.187 				"/>
				<g>
					<polygon style="fill:hsl(24.6,95%,53.1%);" points="180.528,444.2 172.427,446.863 160.331,394.484 171.983,397.258 					"/>
					<polygon style="opacity:0.2;" points="180.528,444.2 172.427,446.863 160.331,394.484 171.983,397.258 					"/>
				</g>
			</g>
			<circle style="fill:hsl(24.6,95%,53.1%);" cx="218.859" cy="421.894" r="6.214"/>
		</g>
		<g>
			
				<rect x="302.54" y="404.412" transform="matrix(0.292 -0.9564 0.9564 0.292 -193.9904 595.7405)" style="fill:hsl(24.6,95%,53.1%);" width="5.723" height="48.981"/>
			
				<rect x="302.54" y="404.412" transform="matrix(0.292 -0.9564 0.9564 0.292 -193.9904 595.7405)" style="opacity:0.4;fill:#FFFFFF;" width="5.723" height="48.981"/>
			
				<rect x="302.439" y="426.043" transform="matrix(0.3052 -0.9523 0.9523 0.3052 -195.3576 590.0469)" style="fill:hsl(24.6,95%,53.1%);" width="8.501" height="5.723"/>
			<g>
				<polygon style="fill:hsl(24.6,95%,53.1%);" points="328.357,446.818 340.565,394.464 377.056,403.198 358.97,454.207 				"/>
				<g>
					<polygon style="fill:hsl(24.6,95%,53.1%);" points="320.262,444.137 328.357,446.818 340.565,394.464 328.907,397.214 					"/>
					<polygon style="opacity:0.2;" points="320.262,444.137 328.357,446.818 340.565,394.464 328.907,397.214 					"/>
				</g>
			</g>
			<path style="fill:hsl(24.6,95%,53.1%);" d="M275.764,421.737c-0.007,3.432,2.769,6.22,6.201,6.228c3.432,0.007,6.22-2.769,6.228-6.201
				c0.007-3.432-2.769-6.22-6.201-6.228C278.559,415.528,275.771,418.305,275.764,421.737z"/>
		</g>
		<g>
			<g>
				<path style="fill:hsl(24.6,95%,53.1%);" d="M322.663,357.132c0.147-0.138,15.203-14.103,32.915-9.326
					c18.112,4.887,33.066,32.167,33.214,32.443l5.034-2.721c-0.654-1.211-16.251-29.724-36.759-35.246
					c-20.857-5.625-37.642,10.034-38.347,10.704L322.663,357.132z"/>
				<path style="opacity:0.4;fill:#FFFFFF;" d="M322.663,357.132c0.147-0.138,15.203-14.103,32.915-9.326
					c18.112,4.887,33.066,32.167,33.214,32.443l5.034-2.721c-0.654-1.211-16.251-29.724-36.759-35.246
					c-20.857-5.625-37.642,10.034-38.347,10.704L322.663,357.132z"/>
			</g>
			<path style="fill:hsl(24.6,95%,53.1%);" d="M382.118,407.712l10.846-5.726c-1.041-1.971-2.323-5.359-2.509-8.418
				c-0.241-3.964,1.332-5.358,3.067-6.275c3.8-2.007,6.068-1.211,7.617-0.299c2.173,1.283,4.383,3.908,6.222,7.392l10.846-5.726
				c-2.968-5.622-6.613-9.736-10.834-12.228c-4.211-2.482-11.025-4.499-19.577,0.015c-6.666,3.519-10.069,9.864-9.582,17.865
				C378.596,400.608,381.299,406.16,382.118,407.712z"/>
		</g>
		<g>
			<path style="fill:#263238;" className='fill-foreground' d="M324.949,338.022c2.351-1.624,4.757-3.154,7.172-4.67c2.409-1.525,4.858-2.983,7.307-4.441
				c2.461-1.437,4.923-2.872,7.425-4.241l3.754-2.05c1.27-0.652,2.522-1.333,3.808-1.959c-1.17,0.821-2.373,1.586-3.559,2.381
				l-3.612,2.29c-2.41,1.525-4.858,2.983-7.308,4.439c-2.462,1.436-4.924,2.871-7.426,4.239
				C330.014,335.39,327.509,336.753,324.949,338.022z"/>
			<path style="fill:#263238;" className='fill-foreground' d="M318.72,361.423c3.366,1.918,6.557,4.083,9.705,6.308c3.13,2.25,6.216,4.561,9.124,7.121
				c-3.368-1.916-6.558-4.081-9.705-6.308C324.716,366.293,321.63,363.982,318.72,361.423z"/>
			<path style="fill:#263238;" className='fill-foreground' d="M324.249,358.545c2.598,0.789,5.156,1.681,7.707,2.588c2.556,0.896,5.084,1.866,7.611,2.836
				c2.519,0.992,5.037,1.986,7.527,3.052l3.734,1.602c1.231,0.568,2.475,1.104,3.695,1.701c-1.302-0.385-2.582-0.831-3.873-1.244
				l-3.835-1.342c-2.556-0.897-5.084-1.866-7.61-2.837c-2.518-0.993-5.037-1.987-7.526-3.054
				C329.185,360.79,326.698,359.719,324.249,358.545z"/>
			<path style="fill:#263238;" className='fill-foreground' d="M331.63,340.217c2.49-0.647,4.998-1.186,7.51-1.709c2.509-0.534,5.033-0.99,7.556-1.447
				c2.527-0.433,5.055-0.864,7.596-1.219l3.812-0.529c1.277-0.14,2.548-0.314,3.831-0.424c-1.243,0.334-2.497,0.604-3.746,0.907
				l-3.764,0.803c-2.51,0.533-5.033,0.99-7.556,1.445c-2.528,0.431-5.055,0.863-7.596,1.217
				C336.734,339.628,334.191,339.977,331.63,340.217z"/>
		</g>
	</g>
</g>


</svg>
